HIERARCHY
ROOT Hips
{
	OFFSET -0.001795 -0.223333 0.028219
	CHANNELS 6 Xposition Yposition Zposition Zrotation Yrotation Xrotation 
	JOINT LeftUpLeg
	{
		OFFSET 0.069520 -0.091406 -0.006815
		CHANNELS 3 Zrotation Yrotation Xrotation
		JOINT LeftLeg
		{
			OFFSET 0.034277 -0.375199 -0.004496
			CHANNELS 3 Zrotation Yrotation Xrotation
			JOINT LeftFoot
			{
				OFFSET -0.013596 -0.397961 -0.043693
				CHANNELS 3 Zrotation Yrotation Xrotation
				JOINT LeftToe
				{
					OFFSET 0.026358 -0.055791 0.119288
					CHANNELS 3 Zrotation Yrotation Xrotation
					End Site
					{
						OFFSET 0.000000 0.000000 0.000000
					}
				}
			}
		}
	}
	JOINT RightUpLeg
	{
		OFFSET -0.067670 -0.090522 -0.004320
		CHANNELS 3 Zrotation Yrotation Xrotation
		JOINT RightLeg
		{
			OFFSET -0.038290 -0.382569 -0.008850
			CHANNELS 3 Zrotation Yrotation Xrotation
			JOINT RightFoot
			{
				OFFSET 0.015774 -0.398415 -0.042312
				CHANNELS 3 Zrotation Yrotation Xrotation
				JOINT RightToe
				{
					OFFSET -0.025372 -0.048144 0.123348
					CHANNELS 3 Zrotation Yrotation Xrotation
					End Site
					{
						OFFSET 0.000000 0.000000 0.000000
					}
				}
			}
		}
	}
	JOINT Spine
	{
		OFFSET -0.002533 0.108963 -0.026696
		CHANNELS 3 Zrotation Yrotation Xrotation
		JOINT Spine1
		{
			OFFSET 0.005487 0.135180 0.001092
			CHANNELS 3 Zrotation Yrotation Xrotation
			JOINT Spine2
			{
				OFFSET 0.001457 0.052922 0.025425
				CHANNELS 3 Zrotation Yrotation Xrotation
				JOINT Neck
				{
					OFFSET -0.002778 0.213870 -0.042857
					CHANNELS 3 Zrotation Yrotation Xrotation
					JOINT Head
					{
						OFFSET 0.005152 0.064970 0.051349
						CHANNELS 3 Zrotation Yrotation Xrotation
						End Site
						{
							OFFSET 0.000000 0.000000 0.000000
						}
					}
				}
				JOINT LeftShoulder
				{
					OFFSET 0.078845 0.121749 -0.034090
					CHANNELS 3 Zrotation Yrotation Xrotation
					JOINT LeftArm
					{
						OFFSET 0.090977 0.030469 -0.008868
						CHANNELS 3 Zrotation Yrotation Xrotation
						JOINT LeftForeArm
						{
							OFFSET 0.259612 -0.012772 -0.027456
							CHANNELS 3 Zrotation Yrotation Xrotation
							JOINT LeftHand
							{
								OFFSET 0.249234 0.008986 -0.001171
								CHANNELS 3 Zrotation Yrotation Xrotation
								End Site
								{
									OFFSET 0.000000 0.000000 0.000000
								}
							}
						}
					}
				}
				JOINT RightShoulder
				{
					OFFSET -0.081759 0.118833 -0.038615
					CHANNELS 3 Zrotation Yrotation Xrotation
					JOINT RightArm
					{
						OFFSET -0.096012 0.032551 -0.009143
						CHANNELS 3 Zrotation Yrotation Xrotation
						JOINT RightForeArm
						{
							OFFSET -0.253742 -0.013329 -0.021401
							CHANNELS 3 Zrotation Yrotation Xrotation
							JOINT RightHand
							{
								OFFSET -0.255298 0.007772 -0.005559
								CHANNELS 3 Zrotation Yrotation Xrotation
								End Site
								{
									OFFSET 0.000000 0.000000 0.000000
								}
							}
						}
					}
				}
			}
		}
	}
}
MOTION
Frames: 18
Frame Time: 0.050000
-0.008728 0.925763 0.007122 3.249168 -7.171282 -8.240373 2.981982 1.035904 11.912244 -3.542165 0.467307 -3.456458 2.617118 6.865112 4.961796 0.000000 0.000000 0.000000 -12.656388 0.572427 8.568260 5.110105 -0.463185 0.117933 -5.526670 -15.189861 8.067748 0.000000 0.000000 0.000000 2.559578 -0.868358 18.513071 -7.825248 2.246781 -32.744453 -4.171086 7.148664 17.132109 13.575146 -0.810091 -50.801147 0.000000 0.000000 0.000000 -19.932774 -12.701839 4.065521 -41.350197 0.107803 -5.890198 -25.747206 -18.115276 4.697567 0.000000 0.000000 0.000000 33.477097 1.178757 -0.442114 49.125896 1.488414 -6.106833 20.174665 18.247387 3.752488 0.000000 0.000000 0.000000
-0.008584 0.925681 0.006063 3.293763 -7.152744 -8.304979 2.823203 1.055025 11.978416 -3.417527 0.454585 -3.425900 2.525580 6.683485 4.938524 0.000000 0.000000 0.000000 -12.693473 0.572880 8.499348 4.923048 -0.447068 0.181004 -5.472978 -15.110942 8.172749 0.000000 0.000000 0.000000 2.574392 -0.874912 18.653181 -7.861298 2.254437 -32.737400 -4.190809 7.181984 17.249472 13.498940 -0.774605 -50.908180 0.000000 0.000000 0.000000 -19.911833 -12.769245 4.146433 -41.334690 0.066509 -5.880880 -25.920551 -18.060961 4.709641 0.000000 0.000000 0.000000 33.560757 1.251902 -0.370115 48.955269 1.611664 -6.060504 20.053455 18.523079 3.798592 0.000000 0.000000 0.000000
-0.008400 0.925433 0.004889 3.401499 -7.114324 -8.376011 2.685713 1.071635 12.037054 -3.404468 0.453080 -3.410986 2.579522 6.781465 4.902244 0.000000 0.000000 0.000000 -12.822579 0.577929 8.310538 4.818091 -0.438504 0.644041 -5.415215 -14.955300 7.930223 0.000000 0.000000 0.000000 2.519583 -0.874510 18.878740 -7.895466 2.260043 -32.807236 -4.218563 7.215535 17.393665 13.311083 -0.695521 -51.093353 0.000000 0.000000 0.000000 -19.838734 -12.742148 4.704767 -41.396832 -0.024433 -5.871575 -26.103964 -18.213779 4.780916 0.000000 0.000000 0.000000 33.550861 1.304872 -0.298710 48.954224 1.788757 -6.017060 19.995979 18.917654 3.886509 0.000000 0.000000 0.000000
-0.008208 0.925313 0.003722 3.457821 -7.053354 -8.367214 2.617022 1.078645 12.066444 -3.397877 0.452577 -3.494890 2.576386 6.754395 4.798983 0.000000 0.000000 0.000000 -12.833224 0.573111 8.197770 4.661092 -0.424118 0.928192 -5.296454 -14.692647 7.752380 0.000000 0.000000 0.000000 2.587108 -0.886495 18.909801 -7.870368 2.258706 -32.667542 -4.303187 7.276551 17.405832 13.229051 -0.650744 -51.194386 0.000000 0.000000 0.000000 -19.855761 -12.777245 5.462869 -41.402119 0.017666 -5.877521 -26.248676 -18.517515 4.885320 0.000000 0.000000 0.000000 33.797871 1.374401 -0.209699 48.769653 1.987576 -5.942458 19.919353 19.264894 3.958808 0.000000 0.000000 0.000000
-0.008030 0.925257 0.002676 3.536769 -7.052504 -8.349536 2.527650 1.086023 12.063227 -3.449172 0.457478 -3.446569 2.642094 6.860154 4.702921 0.000000 0.000000 0.000000 -12.895600 0.575363 8.007155 4.493761 -0.406970 1.223126 -5.224309 -14.541616 7.681183 0.000000 0.000000 0.000000 2.666745 -0.896027 18.875561 -7.772371 2.240549 -32.687553 -4.289788 7.322285 17.681765 13.067403 -0.599070 -51.299583 0.000000 0.000000 0.000000 -19.912121 -12.977410 4.322401 -41.521492 -0.092086 -5.882297 -26.320997 -18.844749 4.990969 0.000000 0.000000 0.000000 33.880348 1.417683 -0.155115 48.645462 2.163295 -5.895664 19.672672 19.622181 4.003733 0.000000 0.000000 0.000000
-0.007856 0.925239 0.001753 3.619852 -6.905681 -8.295804 2.440738 1.078876 11.954411 -3.549074 0.466319 -3.397949 2.725705 7.001113 4.587926 0.000000 0.000000 0.000000 -12.931308 0.568485 7.845578 4.377873 -0.395928 1.425052 -5.171401 -14.415981 7.581541 0.000000 0.000000 0.000000 2.819476 -0.916458 18.723318 -7.855437 2.259912 -32.492889 -4.276369 7.281517 17.918484 12.891177 -0.556094 -51.300072 0.000000 0.000000 0.000000 -19.952480 -13.197526 4.208883 -41.523491 -0.324870 -5.822397 -26.266760 -18.962034 5.014557 0.000000 0.000000 0.000000 33.997021 1.296133 -0.222257 48.574368 2.387716 -5.828818 19.669758 20.134085 4.129135 0.000000 0.000000 0.000000
-0.007751 0.925312 0.000940 3.687267 -6.761330 -8.335674 2.339930 1.076793 11.881460 -3.505571 0.460213 -3.246201 2.750912 7.024585 4.456143 0.000000 0.000000 0.000000 -12.952323 0.560822 7.794049 4.263188 -0.384371 1.665496 -5.165133 -14.396357 7.559559 0.000000 0.000000 0.000000 3.018282 -0.947917 18.715294 -7.776281 2.248092 -32.374973 -4.309289 7.267278 18.040962 12.700172 -0.520938 -51.189671 0.000000 0.000000 0.000000 -20.045723 -13.430303 5.369494 -41.565205 -0.425747 -5.802193 -26.141951 -19.233351 5.066641 0.000000 0.000000 0.000000 34.063862 1.101641 -0.332199 48.440464 2.574099 -5.765839 19.667320 20.508970 4.220666 0.000000 0.000000 0.000000
-0.007683 0.925348 0.000200 3.676908 -6.562180 -8.441501 2.407686 1.066422 11.883194 -3.617228 0.470144 -3.198055 2.773000 7.079538 4.479867 0.000000 0.000000 0.000000 -12.875634 0.542577 7.919550 4.237560 -0.383369 1.757726 -5.183129 -14.420478 7.533445 0.000000 0.000000 0.000000 3.258557 -0.979516 18.540604 -7.792228 2.261030 -32.006130 -4.240662 7.259465 18.256386 12.272037 -0.429583 -50.984196 0.000000 0.000000 0.000000 -20.267311 -13.592565 3.978318 -41.604126 -0.826693 -5.686484 -25.770336 -19.131029 4.971892 0.000000 0.000000 0.000000 34.181484 1.049079 -0.323533 48.295033 2.808715 -5.695245 19.423727 20.856010 4.261907 0.000000 0.000000 0.000000
-0.007731 0.925380 -0.000500 3.742365 -6.363848 -8.428052 2.430743 1.045190 11.731946 -3.701342 0.477117 -3.137760 2.726943 7.010036 4.548733 0.000000 0.000000 0.000000 -12.911845 0.535164 7.882122 4.309902 -0.391819 1.944437 -5.241923 -14.508024 7.436512 0.000000 0.000000 0.000000 3.420801 -1.005724 18.493135 -7.821557 2.269478 -31.885250 -4.269826 7.184014 18.414661 12.040675 -0.375957 -50.917191 0.000000 0.000000 0.000000 -20.292583 -13.642346 3.782651 -41.604916 -1.087941 -5.613451 -25.583973 -19.285444 4.981048 0.000000 0.000000 0.000000 34.237118 0.987168 -0.348182 48.281693 2.909009 -5.674187 19.475859 21.145151 4.342709 0.000000 0.000000 0.000000
-0.007875 0.925430 -0.001154 3.689448 -6.188165 -8.336015 2.602281 1.004941 11.505496 -3.882380 0.494032 -3.101847 2.690405 6.968015 4.658652 0.000000 0.000000 0.000000 -12.808658 0.515371 7.826839 4.409809 -0.403893 2.020857 -5.317789 -14.640935 7.399749 0.000000 0.000000 0.000000 3.636118 -1.026496 18.154758 -7.893524 2.296229 -31.365232 -4.264635 7.289421 18.498440 11.907008 -0.388851 -50.472092 0.000000 0.000000 0.000000 -20.521345 -13.641345 4.998311 -41.475788 -1.411082 -5.474330 -25.226585 -19.398447 4.940972 0.000000 0.000000 0.000000 34.447021 0.875323 -0.339730 48.276329 3.154621 -5.615490 19.224018 21.234959 4.326349 0.000000 0.000000 0.000000
-0.008128 0.925311 -0.001826 3.688850 -6.059166 -8.317768 2.687309 0.983345 11.379087 -3.916745 0.496403 -3.014851 2.653765 6.875031 4.548496 0.000000 0.000000 0.000000 -12.823599 0.511805 7.873012 4.517274 -0.416965 1.997558 -5.441660 -14.888988 7.465635 0.000000 0.000000 0.000000 3.683148 -1.029313 18.004131 -7.966566 2.315677 -31.186806 -4.180573 7.379302 18.792509 11.665824 -0.343319 -50.292500 0.000000 0.000000 0.000000 -20.690632 -13.656242 3.792831 -41.408184 -1.762205 -5.361608 -24.907236 -19.522329 4.914142 0.000000 0.000000 0.000000 34.491150 0.795946 -0.312643 48.380524 3.238118 -5.644509 19.142742 21.300339 4.339426 0.000000 0.000000 0.000000
-0.008474 0.925097 -0.002527 3.662176 -5.897488 -8.213705 2.793979 0.951178 11.168134 -4.023443 0.505814 -2.969066 2.618278 6.815706 4.573019 0.000000 0.000000 0.000000 -12.718977 0.491442 7.752750 4.513064 -0.417911 2.063776 -5.527908 -15.025599 7.336202 0.000000 0.000000 0.000000 3.691801 -1.026780 17.804747 -7.950341 2.324252 -30.741911 -4.160917 7.376700 18.822212 11.661408 -0.386810 -49.925102 0.000000 0.000000 0.000000 -21.015381 -13.587638 3.647437 -41.239922 -1.906934 -5.276652 -24.611126 -19.629408 4.886491 0.000000 0.000000 0.000000 34.569908 0.811175 -0.262758 48.346874 3.504994 -5.551224 18.917942 21.226072 4.282459 0.000000 0.000000 0.000000
-0.008909 0.924873 -0.003246 3.604313 -5.773873 -8.202542 2.915815 0.922649 10.986560 -4.056190 0.508149 -2.748189 2.550069 6.647334 4.407260 0.000000 0.000000 0.000000 -12.667991 0.479576 7.771279 4.553034 -0.423891 2.021570 -5.678586 -15.339297 7.478740 0.000000 0.000000 0.000000 3.545351 -1.008183 17.760349 -7.937956 2.330315 -30.564548 -4.153843 7.353558 18.865601 11.578947 -0.374788 -49.814255 0.000000 0.000000 0.000000 -21.129936 -13.400657 4.041661 -41.282574 -1.936160 -5.272093 -24.310163 -19.434229 4.783835 0.000000 0.000000 0.000000 34.468227 0.915306 -0.159801 48.480824 3.458804 -5.587265 18.875551 21.166676 4.262121 0.000000 0.000000 0.000000
-0.009409 0.924823 -0.003969 3.479224 -5.793910 -8.042157 3.073950 0.886186 10.712309 -4.121886 0.514897 -2.683268 2.638429 6.817858 4.412426 0.000000 0.000000 0.000000 -12.475677 0.463396 7.719961 4.509261 -0.418895 2.011380 -5.798391 -15.562973 7.452449 0.000000 0.000000 0.000000 3.495408 -0.992320 17.515898 -7.990457 2.350932 -30.160494 -4.037420 7.429531 18.989187 11.600335 -0.424805 -49.494308 0.000000 0.000000 0.000000 -21.424957 -13.263442 4.464165 -41.078972 -1.995659 -5.220763 -24.036842 -19.186842 4.670466 0.000000 0.000000 0.000000 34.595242 0.929162 -0.129678 48.343307 3.640354 -5.517560 18.667219 21.127056 4.213163 0.000000 0.000000 0.000000
-0.009943 0.924867 -0.004650 3.353787 -5.789413 -7.903567 3.223057 0.860589 10.557418 -4.135168 0.515843 -2.724963 2.604598 6.747524 4.396703 0.000000 0.000000 0.000000 -12.353165 0.452182 7.654501 4.526821 -0.421268 1.877845 -5.862130 -15.689736 7.487178 0.000000 0.000000 0.000000 3.451745 -0.984859 17.420551 -7.913274 2.341624 -29.878052 -4.082567 7.640323 19.109894 11.788005 -0.470615 -49.507156 0.000000 0.000000 0.000000 -21.455271 -13.314860 4.686243 -41.030106 -2.057534 -5.182403 -23.785730 -18.787128 4.517737 0.000000 0.000000 0.000000 34.610382 0.932693 -0.016529 48.388977 3.901843 -5.465026 18.544123 21.363640 4.255764 0.000000 0.000000 0.000000
-0.010488 0.925023 -0.005263 3.135709 -5.776654 -7.764794 3.506817 0.833938 10.513016 -4.158155 0.517436 -2.860631 2.669615 6.912802 4.559879 0.000000 0.000000 0.000000 -12.088158 0.427451 7.699692 4.527451 -0.422110 1.743619 -5.839124 -15.642047 7.480723 0.000000 0.000000 0.000000 3.528732 -0.990838 17.258362 -7.839434 2.337101 -29.461412 -4.084770 7.609670 19.038923 11.753485 -0.490263 -49.244389 0.000000 0.000000 0.000000 -21.609470 -13.172771 3.417564 -41.043770 -1.860224 -5.230213 -23.668392 -18.525381 4.432408 0.000000 0.000000 0.000000 34.527164 0.852035 -0.081163 48.521328 4.023343 -5.412014 18.347691 21.255590 4.194560 0.000000 0.000000 0.000000
-0.011027 0.925193 -0.005821 2.989311 -5.757488 -7.672622 3.656159 0.813824 10.419643 -4.145511 0.515592 -2.900985 2.791207 7.155672 4.592210 0.000000 0.000000 0.000000 -11.898209 0.409122 7.733550 4.572854 -0.427789 1.553119 -5.948588 -15.864945 7.570358 0.000000 0.000000 0.000000 3.409374 -0.985113 17.397146 -7.743455 2.317600 -29.382509 -4.038035 7.479540 19.071367 11.871653 -0.543849 -49.199955 0.000000 0.000000 0.000000 -21.788483 -13.057996 3.305420 -40.958839 -1.810590 -5.242370 -23.284132 -18.006788 4.244311 0.000000 0.000000 0.000000 34.492123 0.886938 -0.109642 48.405224 3.925901 -5.421705 18.331808 21.454321 4.230260 0.000000 0.000000 0.000000
-0.011562 0.925467 -0.006356 2.873669 -5.785570 -7.488618 3.753774 0.802211 10.379713 -4.156886 0.516417 -3.013488 2.874978 7.347640 4.733022 0.000000 0.000000 0.000000 -11.718758 0.394496 7.630059 4.535262 -0.423394 1.559567 -5.992802 -15.945428 7.554405 0.000000 0.000000 0.000000 3.377845 -0.977780 17.284340 -7.701659 2.313543 -29.141075 -4.046804 7.375207 19.159807 12.059464 -0.604939 -49.255520 0.000000 0.000000 0.000000 -21.736139 -13.137332 3.898114 -41.193188 -1.781735 -5.295534 -23.116446 -17.794155 4.171504 0.000000 0.000000 0.000000 34.461330 0.695968 -0.301800 48.423489 3.829777 -5.442290 18.363901 21.487200 4.242757 0.000000 0.000000 0.000000
